<svg id="Iconly_Bold_Location" data-name="Iconly/Bold/Location" xmlns="http://www.w3.org/2000/svg" width="19.5" height="22.938" viewBox="0 0 19.5 22.938">
  <g id="Location" transform="translate(0 0)">
    <path id="Location-2" data-name="Location" d="M9.71,22.938a1.2,1.2,0,0,1-.774-.284,25.163,25.163,0,0,1-6.413-5.975A12.356,12.356,0,0,1,0,9.624,9.553,9.553,0,0,1,2.877,2.815,9.754,9.754,0,0,1,9.763,0h.021a9.856,9.856,0,0,1,6.882,2.857A9.69,9.69,0,0,1,19.5,9.7v.058c-.043,2.142-.849,5.472-4.45,9.175a25.435,25.435,0,0,1-4.565,3.716A1.2,1.2,0,0,1,9.71,22.938ZM9.785,6.8A3.078,3.078,0,0,0,6.7,9.865a3.013,3.013,0,0,0,.889,2.145,3.1,3.1,0,0,0,2.162.906h.035a3.077,3.077,0,0,0,2.168-.871,3.038,3.038,0,0,0,.93-2.179A3.084,3.084,0,0,0,9.785,6.8Z" transform="translate(0 0)" fill="#b3b3b3"/>
  </g>
</svg>
