<?xml version="1.0" encoding="iso-8859-1"?>
<!-- Generator: Adobe Illustrator 18.0.0, SVG Export Plug-In . SVG Version: 6.00 Build 0)  -->
<!DOCTYPE svg PUBLIC "-//W3C//DTD SVG 1.1//EN" "http://www.w3.org/Graphics/SVG/1.1/DTD/svg11.dtd">
<svg version="1.1" id="Capa_1" xmlns="http://www.w3.org/2000/svg" xmlns:xlink="http://www.w3.org/1999/xlink" x="0px" y="0px"
	 viewBox="0 0 494.035 494.035" style="enable-background:new 0 0 494.035 494.035;" xml:space="preserve">
<g>
	<path d="M247.017,103.116c8.724,0,15.783-7.066,15.783-15.783V37.747c0-8.716-7.06-15.784-15.783-15.784
		s-15.783,7.068-15.783,15.784v49.585C231.234,96.05,238.294,103.116,247.017,103.116z"/>
	<path d="M115.833,140.818c3.128,3.722,7.599,5.641,12.115,5.641c3.575,0,7.167-1.209,10.127-3.692
		c6.673-5.602,7.552-15.551,1.957-22.234l-31.86-37.986c-5.596-6.675-15.537-7.561-22.242-1.949
		c-6.674,5.602-7.553,15.551-1.957,22.234L115.833,140.818z"/>
	<path d="M64.613,256.204c7.521,0,14.18-5.379,15.521-13.039c1.525-8.586-4.207-16.77-12.794-18.288l-48.815-8.624
		c-8.568-1.495-16.769,4.216-18.279,12.8c-1.525,8.587,4.207,16.77,12.794,18.289l48.814,8.624
		C62.778,256.127,63.703,256.204,64.613,256.204z"/>
	<path d="M475.51,216.268l-48.848,8.608c-8.584,1.511-14.318,9.702-12.792,18.28c1.34,7.66,7.999,13.047,15.522,13.047
		c0.909,0,1.834-0.076,2.759-0.238l48.846-8.608c8.586-1.511,14.318-9.704,12.794-18.28
		C492.279,220.484,484.094,214.75,475.51,216.268z"/>
	<path d="M366.056,146.483c4.516,0,8.986-1.919,12.1-5.635l31.859-37.963c5.611-6.683,4.733-16.639-1.941-22.242
		c-6.689-5.604-16.646-4.709-22.227,1.941l-31.86,37.964c-5.609,6.683-4.731,16.639,1.942,22.242
		C358.889,145.272,362.48,146.483,366.056,146.483z"/>
	<rect x="40.198" y="396.113" width="413.639" height="75.959"/>
	<path d="M247.017,123.848c-81.723,0-147.971,66.248-147.971,147.97v101.014h82.663h195.014h18.265V271.818
		C394.988,190.096,328.74,123.848,247.017,123.848z M130.614,341.264v-69.446c0-61.214,47.535-111.439,107.618-115.957
		c-34.342,27.059-56.522,68.831-56.522,115.957v69.446H130.614z"/>
</g>
<g>
</g>
<g>
</g>
<g>
</g>
<g>
</g>
<g>
</g>
<g>
</g>
<g>
</g>
<g>
</g>
<g>
</g>
<g>
</g>
<g>
</g>
<g>
</g>
<g>
</g>
<g>
</g>
<g>
</g>
</svg>
